<svg width="400" height="300" viewBox="0 0 400 300" fill="none" xmlns="http://www.w3.org/2000/svg">
  <rect width="400" height="300" fill="#F3F4F6"/>
  <path d="M200 100C178.954 100 162 116.954 162 138C162 159.046 178.954 176 200 176C221.046 176 238 159.046 238 138C238 116.954 221.046 100 200 100ZM200 166C184.477 166 172 153.523 172 138C172 122.477 184.477 110 200 110C215.523 110 228 122.477 228 138C228 153.523 215.523 166 200 166Z" fill="#9CA3AF"/>
  <path d="M200 180C166.863 180 140 206.863 140 240H260C260 206.863 233.137 180 200 180Z" fill="#9CA3AF"/>
</svg>